<svg width="221" height="50" viewBox="0 0 221 50" fill="none" xmlns="http://www.w3.org/2000/svg">
<path fill-rule="evenodd" clip-rule="evenodd" d="M130.806 12.0368C130.269 12.5264 129.558 12.7712 128.675 12.7712C127.792 12.7712 127.082 12.5264 126.544 12.0368C126.006 11.5472 125.738 10.9376 125.738 10.208C125.738 9.45923 126.006 8.84003 126.544 8.35043C127.082 7.86083 127.792 7.61603 128.675 7.61603C129.558 7.61603 130.269 7.86083 130.806 8.35043C131.344 8.84003 131.613 9.45923 131.613 10.208C131.613 10.9376 131.344 11.5472 130.806 12.0368ZM67.5904 27.0272V30.8H56.0992V10.4384H61.024V27.0272H67.5904ZM81.6592 30.008C80.4016 30.6704 78.976 31.0016 77.3824 31.0016C75.7888 31.0016 74.3584 30.6704 73.0912 30.008C71.824 29.3456 70.8304 28.3904 70.1104 27.1424C69.3904 25.8944 69.0304 24.4352 69.0304 22.7648C69.0304 21.0944 69.3904 19.6352 70.1104 18.3872C70.8304 17.1392 71.824 16.184 73.0912 15.5216C74.3584 14.8592 75.7888 14.528 77.3824 14.528C78.976 14.528 80.4016 14.8592 81.6592 15.5216C82.9168 16.184 83.9056 17.1392 84.6256 18.3872C85.3456 19.6352 85.7056 21.0944 85.7056 22.7648C85.7056 24.4352 85.3456 25.8944 84.6256 27.1424C83.9056 28.3904 82.9168 29.3456 81.6592 30.008ZM77.3824 26.7104C76.4416 26.7104 75.6496 26.3744 75.0064 25.7024C74.3632 25.0304 74.0416 24.0512 74.0416 22.7648C74.0416 21.4784 74.3632 20.4944 75.0064 19.8128C75.6496 19.1312 76.4416 18.7904 77.3824 18.7904C78.3232 18.7904 79.1104 19.1312 79.744 19.8128C80.3776 20.4944 80.6944 21.4784 80.6944 22.7648C80.6944 24.0512 80.3776 25.0304 79.744 25.7024C79.1104 26.3744 78.3232 26.7104 77.3824 26.7104ZM100.883 37.6256C99.6928 38.336 98.2144 38.6912 96.448 38.6912C94.0288 38.6912 92.0944 38.12 90.6448 36.9776C89.1952 35.8352 88.3264 34.2848 88.0384 32.3264H92.9056C93.0592 32.9792 93.4096 33.488 93.9568 33.8528C94.504 34.2176 95.2192 34.4 96.1024 34.4C97.12 34.4 97.9408 34.1072 98.5648 33.5216C99.1888 32.936 99.5008 32 99.5008 30.7136V27.8912C99.0784 28.8512 98.4256 29.6096 97.5424 30.1664C96.6592 30.7232 95.6032 31.0016 94.3744 31.0016C93.0496 31.0016 91.864 30.6704 90.8176 30.008C89.7712 29.3456 88.9456 28.3904 88.3408 27.1424C87.736 25.8944 87.4336 24.4352 87.4336 22.7648C87.4336 21.0752 87.736 19.6112 88.3408 18.3728C88.9456 17.1344 89.7712 16.184 90.8176 15.5216C91.864 14.8592 93.0496 14.528 94.3744 14.528C95.6032 14.528 96.6592 14.8064 97.5424 15.3632C98.4256 15.92 99.0784 16.6784 99.5008 17.6384V14.7296H104.397V30.7136C104.397 32.2112 104.109 33.56 103.533 34.76C102.957 35.96 102.074 36.9152 100.883 37.6256ZM95.9584 26.6816C94.9024 26.6816 94.0528 26.336 93.4096 25.6448C92.7664 24.9536 92.4448 23.9936 92.4448 22.7648C92.4448 21.536 92.7664 20.576 93.4096 19.8848C94.0528 19.1936 94.9024 18.848 95.9584 18.848C96.9952 18.848 97.8448 19.1984 98.5072 19.8992C99.1696 20.6 99.5008 21.5552 99.5008 22.7648C99.5008 23.9552 99.1696 24.9056 98.5072 25.616C97.8448 26.3264 96.9952 26.6816 95.9584 26.6816ZM119.589 30.008C118.331 30.6704 116.906 31.0016 115.312 31.0016C113.718 31.0016 112.288 30.6704 111.021 30.008C109.754 29.3456 108.76 28.3904 108.04 27.1424C107.32 25.8944 106.96 24.4352 106.96 22.7648C106.96 21.0944 107.32 19.6352 108.04 18.3872C108.76 17.1392 109.754 16.184 111.021 15.5216C112.288 14.8592 113.718 14.528 115.312 14.528C116.906 14.528 118.331 14.8592 119.589 15.5216C120.846 16.184 121.835 17.1392 122.555 18.3872C123.275 19.6352 123.635 21.0944 123.635 22.7648C123.635 24.4352 123.275 25.8944 122.555 27.1424C121.835 28.3904 120.846 29.3456 119.589 30.008ZM115.312 26.7104C114.371 26.7104 113.579 26.3744 112.936 25.7024C112.293 25.0304 111.971 24.0512 111.971 22.7648C111.971 21.4784 112.293 20.4944 112.936 19.8128C113.579 19.1312 114.371 18.7904 115.312 18.7904C116.253 18.7904 117.04 19.1312 117.674 19.8128C118.307 20.4944 118.624 21.4784 118.624 22.7648C118.624 24.0512 118.307 25.0304 117.674 25.7024C117.04 26.3744 116.253 26.7104 115.312 26.7104ZM131.123 14.7296H126.198V30.8H131.123V14.7296ZM139.446 27.8912V38.4608H134.522V14.7296H139.446V17.6384C139.85 16.6784 140.493 15.92 141.376 15.3632C142.259 14.8064 143.315 14.528 144.544 14.528C145.869 14.528 147.054 14.8592 148.101 15.5216C149.147 16.184 149.973 17.1344 150.578 18.3728C151.182 19.6112 151.485 21.0752 151.485 22.7648C151.485 24.4352 151.182 25.8944 150.578 27.1424C149.973 28.3904 149.147 29.3456 148.101 30.008C147.054 30.6704 145.869 31.0016 144.544 31.0016C143.315 31.0016 142.259 30.7232 141.376 30.1664C140.493 29.6096 139.85 28.8512 139.446 27.8912ZM142.96 26.6816C141.923 26.6816 141.074 26.3264 140.411 25.616C139.749 24.9056 139.418 23.9552 139.418 22.7648C139.418 21.5552 139.749 20.6 140.411 19.8992C141.074 19.1984 141.923 18.848 142.96 18.848C144.016 18.848 144.866 19.1936 145.509 19.8848C146.152 20.576 146.474 21.536 146.474 22.7648C146.474 23.9936 146.152 24.9536 145.509 25.6448C144.866 26.336 144.016 26.6816 142.96 26.6816ZM164.387 30.3968C163.446 30.8 162.333 31.0016 161.046 31.0016C158.877 31.0016 157.139 30.5216 155.834 29.5616C154.528 28.6016 153.731 27.2288 153.443 25.4432H158.195C158.272 26.1344 158.565 26.6624 159.074 27.0272C159.582 27.392 160.24 27.5744 161.046 27.5744C161.603 27.5744 162.026 27.4448 162.314 27.1856C162.602 26.9264 162.746 26.5856 162.746 26.1632C162.746 25.6064 162.482 25.208 161.954 24.968C161.426 24.728 160.566 24.4736 159.376 24.2048C158.186 23.9552 157.206 23.6864 156.438 23.3984C155.67 23.1104 155.008 22.6448 154.451 22.0016C153.894 21.3584 153.616 20.48 153.616 19.3664C153.616 17.9264 154.163 16.76 155.258 15.8672C156.352 14.9744 157.898 14.528 159.894 14.528C161.93 14.528 163.557 15.0368 164.776 16.0544C165.995 17.072 166.758 18.416 167.066 20.0864H162.458C162.323 19.4336 162.021 18.92 161.55 18.5456C161.08 18.1712 160.49 17.984 159.779 17.984C159.222 17.984 158.8 18.104 158.512 18.344C158.224 18.584 158.08 18.9248 158.08 19.3664C158.08 19.8656 158.344 20.24 158.872 20.4896C159.4 20.7392 160.23 20.9888 161.363 21.2384C162.592 21.5264 163.6 21.8192 164.387 22.1168C165.174 22.4144 165.856 22.8992 166.432 23.5712C167.008 24.2432 167.296 25.1456 167.296 26.2784C167.296 27.2 167.046 28.016 166.547 28.7264C166.048 29.4368 165.328 29.9936 164.387 30.3968ZM175.821 30.9728C177.03 30.9728 178.091 30.6944 179.003 30.1376C179.915 29.5808 180.602 28.832 181.062 27.8912V30.8H186.016V14.7296H181.062V23.2544C181.062 24.4256 180.774 25.328 180.198 25.9616C179.622 26.5952 178.835 26.912 177.837 26.912C176.877 26.912 176.114 26.6096 175.547 26.0048C174.981 25.4 174.698 24.5504 174.698 23.456V14.7296H169.802V24.0608C169.802 26.2112 170.344 27.9008 171.429 29.1296C172.514 30.3584 173.978 30.9728 175.821 30.9728ZM194.339 22.2752V30.8H189.414V14.7296H194.339V17.4656C194.762 16.5632 195.41 15.8528 196.283 15.3344C197.157 14.816 198.179 14.5568 199.35 14.5568C200.579 14.5568 201.664 14.84 202.605 15.4064C203.546 15.9728 204.256 16.784 204.736 17.84C205.293 16.8416 206.056 16.0448 207.026 15.4496C207.995 14.8544 209.066 14.5568 210.237 14.5568C212.214 14.5568 213.77 15.1664 214.902 16.3856C216.035 17.6048 216.602 19.2992 216.602 21.4688V30.8H211.706V22.0448C211.706 21.0272 211.432 20.2352 210.885 19.6688C210.338 19.1024 209.594 18.8192 208.653 18.8192C207.674 18.8192 206.901 19.1216 206.334 19.7264C205.768 20.3312 205.485 21.1808 205.485 22.2752V30.8H200.56V22.0448C200.56 21.0272 200.291 20.2352 199.754 19.6688C199.216 19.1024 198.477 18.8192 197.536 18.8192C196.557 18.8192 195.779 19.1168 195.203 19.712C194.627 20.3072 194.339 21.1616 194.339 22.2752Z" fill="#D8D8D8"/>
<circle cx="218.4" cy="12.8" r="2.4" fill="white"/>
<g filter="url(#filter0_d_0_242)">
<path fill-rule="evenodd" clip-rule="evenodd" d="M31.2 28C38.7111 28 44.8 21.732 44.8 14C44.8 6.26801 38.7111 0 31.2 0C23.8189 0 17.8111 6.05299 17.6054 13.6C17.6036 13.6 17.6018 13.6 17.6 13.6C10.0889 13.6 4 19.868 4 27.6C4 35.332 10.0889 41.6 17.6 41.6C24.9811 41.6 30.9889 35.547 31.1946 28C31.1964 28 31.1982 28 31.2 28ZM17.6 14C17.6 21.7301 23.686 27.997 31.1946 28C31.1982 27.8671 31.2 27.7338 31.2 27.6C31.2 19.8699 25.114 13.603 17.6054 13.6C17.6018 13.7329 17.6 13.8662 17.6 14Z" fill="#D8D8D8"/>
</g>
<defs>
<filter id="filter0_d_0_242" x="0" y="0" width="48.8" height="49.6" filterUnits="userSpaceOnUse" color-interpolation-filters="sRGB">
<feFlood flood-opacity="0" result="BackgroundImageFix"/>
<feColorMatrix in="SourceAlpha" type="matrix" values="0 0 0 0 0 0 0 0 0 0 0 0 0 0 0 0 0 0 127 0" result="hardAlpha"/>
<feOffset dy="4"/>
<feGaussianBlur stdDeviation="2"/>
<feComposite in2="hardAlpha" operator="out"/>
<feColorMatrix type="matrix" values="0 0 0 0 0 0 0 0 0 0 0 0 0 0 0 0 0 0 0.25 0"/>
<feBlend mode="normal" in2="BackgroundImageFix" result="effect1_dropShadow_0_242"/>
<feBlend mode="normal" in="SourceGraphic" in2="effect1_dropShadow_0_242" result="shape"/>
</filter>
</defs>
</svg>
